<?xml version="1.0" encoding="UTF-8"?>
<svg xmlns="http://www.w3.org/2000/svg" xmlns:xlink="http://www.w3.org/1999/xlink" viewBox="0 0 1200.06 750">
  <defs>
    <style>
      .cls-1 {
        fill: url(#linear-gradient);
      }

      .cls-2 {
        fill: #006838;
      }

      .cls-3 {
        fill: #009444;
      }

      .cls-4 {
        fill: #ece09c;
      }

      .cls-5 {
        fill: #a97c50;
      }

      .cls-6 {
        fill: #d0edf4;
      }

      .cls-7 {
        fill: #0e4d2b;
      }

      .cls-8 {
        fill: #603913;
      }

      .cls-9 {
        fill: url(#linear-gradient-2);
      }
    </style>
    <linearGradient id="linear-gradient" x1="393.17" y1="206.89" x2="763.17" y2="206.89" gradientTransform="translate(21.89 -21.89)" gradientUnits="userSpaceOnUse">
      <stop offset="0" stop-color="#5bc9e1"/>
      <stop offset="1" stop-color="#d0ecf4"/>
    </linearGradient>
    <linearGradient id="linear-gradient-2" x1="411" y1="559.07" x2="791" y2="559.07" gradientTransform="translate(-.93 .93)" gradientUnits="userSpaceOnUse">
      <stop offset="0" stop-color="#444ca0"/>
      <stop offset=".05" stop-color="#3465ac"/>
      <stop offset=".12" stop-color="#247fb9"/>
      <stop offset=".2" stop-color="#1695c3"/>
      <stop offset=".29" stop-color="#0ca6cc"/>
      <stop offset=".4" stop-color="#05b2d1"/>
      <stop offset=".56" stop-color="#01b9d5"/>
      <stop offset="1" stop-color="#00bbd6"/>
    </linearGradient>
  </defs>
  <g id="sky">
    <path class="cls-6" d="M615.54,183.28c11.5,.4,23.24,.82,34.28-1.95,36.26-9.1,47.9-57.02,18.92-77.84-23.08-16.58-57.11-13.3-85.75-21.21-29.11-8.04-51.95-27.53-79.59-38.76-37.91-15.4-81.73-14.19-123.62-12.67-12.49,.45-25.8,1.15-35.87,7.51-6.76,4.27-11.53,10.84-19.09,13.97-10.27,4.26-22.33,1.02-33.51-.91-59.91-10.37-118.33,19.2-169.79,47.54-31.24,17.2-65.6,39.2-75.64,68.12-3.24,9.32,3.65,19.05,13.52,19.21,185.5,3.18,370.3-9.63,556.15-3.02Z"/>
    <rect class="cls-1" x="415.06" y="-415" width="370" height="1200" transform="translate(785.06 -415.06) rotate(90)"/>
  </g>
  <g id="sand_ands_water" data-name="sand ands water">
    <rect class="cls-9" x="410.06" y="-40" width="380" height="1200" transform="translate(1160.06 -40.06) rotate(90)"/>
    <path class="cls-4" d="M1199.59,549.7c-58.56,4.22-117.35,6.78-175.99,9.75-90.89,4.6-181.65-8.29-271.74-21.15-59.37-8.47-118.73-16.95-178.1-25.42-68.13-9.72-136.26-19.45-204.39-29.17C240.8,465.36,107.13,445.09,0,371.65l.06,378.35H1200.06l-.47-200.3Z"/>
    <path class="cls-6" d="M1065.72,280.7c4.72,.15,7.52-3.3,4.87-5.95-8.61-8.61-23.63-14.46-38.76-17.55-18.9-3.87-38.84-4.47-58.01-7.6-21.27-3.47-42.03-10.09-63.76-9.59-14.11,.33-27.5,3.67-40.59,6.97-14.24,3.59-28.48,7.17-42.71,10.76-6.92,1.74-14.1,3.6-19.07,7.22-22.28,16.22,22.39,14.54,34.3,14.94,26.9,.91,53.81,1.58,80.72,2.01,11.64,.18,110.84-2.23,143.01-1.2Z"/>
    <path class="cls-6" d="M570.5,321.72c1.86,0,4.03-.15,5.1-1.68,1-1.43,.55-3.41-.2-4.99-4.25-9.03-15.35-12.39-25.29-13.29-9.94-.89-20.55-.46-29.13-5.56-3.83-2.28-6.97-5.51-10.38-8.37-18.26-15.3-43.28-19.15-66.99-21.43-17.56-1.69-35.67-2.8-52.5,2.49-16.83,5.28-32.31,18.31-35.61,35.64-6.47,34.1,58.93,17.42,77.15,17.4,45.95-.07,91.89-.14,137.84-.21Z"/>
    <path class="cls-6" d="M753.52,276.12c-1.51-8.7-9.05-15.37-17.35-18.4s-17.34-3.07-26.17-3.07c-17.38,0-34.77-.01-52.15-.02-16.97,0-45.74,.46-51.83,19.3,33.97,17.22,108.47,3.11,147.5,2.19Z"/>
    <path class="cls-6" d="M243.94,306.24c-36.35,12.34-74.72,18.66-113.1,18.76-55.96,.15-31.65-14.77-6.16-39.59,19.82-19.3,24.77-36.89,58.39-31.39,10.76,1.76,70.9,48.81,60.87,52.22Z"/>
  </g>
  <g id="Layer_3" data-name="Layer 3">
    <g>
      <g>
        <path class="cls-5" d="M211.61,295.16c1.12-.95,2.55-1.86,3.96-1.45,1.05,.31,1.78,1.32,2.05,2.38s.19,2.18,.09,3.27c-.37,4.34-.74,8.69-1.11,13.03-.16,1.93-.43,4.07-1.91,5.32-.65,.55-1.48,.86-2.3,1.09-2.57,.73-7.59,1.37-9.95-.32s-1.16-4.83-.58-7.29c1.47-6.19,4.9-11.92,9.76-16.04Z"/>
        <path class="cls-5" d="M210.39,320.71c1.22-.26,2.8-.36,3.38,.74,.46,.87-.06,1.92-.54,2.77-2.6,4.64-4.41,9.73-5.33,14.97-.22,1.29-.48,2.72-1.53,3.5-.63,.47-1.46,.6-2.25,.58-2.7-.08-5.14-1.9-6.5-4.23s-1.78-5.1-1.78-7.8c0-8.82,7.76-9.11,14.54-10.54Z"/>
        <path class="cls-5" d="M194.56,340.12c-.42-.36-.93-.75-1.47-.62-.47,.11-.76,.59-.98,1.02-2.32,4.63-3.05,9.87-3.75,15-.12,.89-.23,1.83,.15,2.64,.41,.85,1.29,1.37,2.11,1.83,2.35,1.31,4.7,2.63,7.05,3.94,.89,.5,1.81,1,2.82,1.1,.44,.04,.9,0,1.26-.26,.3-.22,.48-.57,.64-.91,1.58-3.49,2.7-10.14,1.99-13.89s-7.01-7.4-9.83-9.85Z"/>
        <path class="cls-5" d="M185.34,368.08c.33-1.23,.69-2.48,1.41-3.53s1.87-1.89,3.14-1.92c1-.02,1.94,.44,2.83,.9,1.14,.58,2.27,1.16,3.41,1.74,1.24,.64,2.54,1.31,3.34,2.45,1.9,2.69,.27,6.34,.1,9.63-.13,2.52,.6,5.32-.84,7.4-.73,1.05-1.89,1.7-3.03,2.26-3.39,1.69-6.99,2.98-10.68,3.84-5.74,1.34-3.69-3.49-3.11-7,.89-5.31,2.02-10.58,3.43-15.77Z"/>
        <path class="cls-5" d="M197.97,398.16c-.27-1.52-.64-3.05-1.44-4.37s-2.11-2.4-3.64-2.6c-1.43-.19-2.83,.41-4.16,.99-2.24,.98-4.56,2.03-6.12,3.91-1.2,1.45-1.85,3.35-1.8,5.24,.03,.96,.25,1.95,.88,2.67,.48,.56,1.16,.9,1.82,1.23,2.94,1.43,10.03,5.62,13.35,4.91,3.51-.75,1.6-9.24,1.11-11.98Z"/>
        <path class="cls-5" d="M197.63,424.73c.06-2.52,.11-5.11-.89-7.47-1.97-4.63-7.6-7.39-13.16-8.49-.95-.19-1.99-.33-2.85,.06-1.17,.53-1.54,1.81-1.72,2.94-.8,4.97-.38,10.01,.04,15.02,.26,3.11,.73,6.58,3.51,8.55,2.43,1.72,5.87,1.74,9.02,1.67,3.55-.08,5.06,.02,5.82-2.92s.16-6.45,.23-9.36Z"/>
        <path class="cls-5" d="M195.03,457.77c.97-.86,1.92-1.78,2.53-2.93,1.69-3.17,.4-7.03-.91-10.37-.53-1.36-1.09-2.76-2.11-3.81-2.18-2.25-5.73-2.25-8.86-2.1-1.37,.07-2.81,.16-3.93,.94-1.66,1.15-2.09,3.37-2.3,5.38-.5,4.63-2.33,15.22,1.09,19.1s11.81-3.83,14.51-6.22Z"/>
        <path class="cls-5" d="M180.75,473.83c-.07-.67-.13-1.36,.08-2,.27-.81,.94-1.44,1.58-2.03,4.72-4.35,10.16-8.99,16.83-9.08,.44,0,.91,.02,1.28,.23,.41,.24,.63,.67,.81,1.09,1.13,2.62,1.46,5.47,1.78,8.28,.46,4.03,.91,8.05,1.37,12.08,.14,1.26,.28,2.59-.27,3.75-.63,1.33-2.07,2.2-3.57,2.6s-3.1,.39-4.67,.39c-3.62,0-11.16,1.9-13.36-1.54s-1.45-9.93-1.84-13.77Z"/>
        <path class="cls-5" d="M184.64,494.34c-1.4,1.43-1.88,3.57-1.74,5.57s.84,3.91,1.53,5.79c.42,1.15,.85,2.3,1.27,3.46,.35,.95,.71,1.92,1.38,2.67,1.29,1.45,3.42,1.76,5.36,1.79,3.23,.04,6.46-.47,9.52-1.5,1.16-.39,2.32-.87,3.22-1.7,4.27-3.91,1.54-13.6-2.8-16.66-3.9-2.75-14.37-2.86-17.73,.59Z"/>
        <path class="cls-5" d="M209.95,521.04c-1.07-2.13-2.33-4.43-4.56-5.29-1.03-.4-2.16-.43-3.26-.42-2.12,.02-4.24,.18-6.34,.5-1.2,.18-2.41,.42-3.48,.97-2.69,1.37-4.1,4.55-4.07,7.57s1.29,5.89,2.82,8.5c.57,.98,1.2,1.95,2.05,2.7,.87,.77,1.95,1.28,3.05,1.66,3.95,1.38,13.47,3.08,16.76-.5,3.78-4.1-1.02-11.84-2.96-15.69Z"/>
        <path class="cls-5" d="M218.49,558.85c.7-.92,1.4-1.9,1.62-3.04,.26-1.34-.2-2.7-.65-3.99-.94-2.7-2-5.58-4.33-7.25-1.43-1.03-3.18-1.47-4.88-1.9-5.47-1.37-10.95-2.75-16.55-3.42-.81-.1-1.77-.12-2.29,.5-.34,.41-.38,.99-.41,1.52-.42,10.58,1.74,21.44,6.4,30.97,3.09,6.31,5.99,3.17,9.97-.76,4-3.94,7.71-8.17,11.1-12.65Z"/>
        <path class="cls-5" d="M213.99,569.56c3.24-2.65,8.06-4.55,11.7-2.41,2.71,1.59,3.72,4.79,4.64,7.68,2.19,6.9,4.99,13.62,8.36,20.08,.36,.69,.74,1.43,.67,2.2-.19,1.96-2.85,2.55-4.91,2.74-5.82,.53-11.56,1.88-16.96,3.99-1.17,.46-2.46,.96-3.67,.61-1.45-.42-2.23-1.87-2.81-3.19-2.32-5.25-5.67-12.42-5.47-18.23,.16-4.93,4.72-10.4,8.47-13.47Z"/>
        <path class="cls-5" d="M215.29,612.02c-.23-.83-.42-1.71-.21-2.55,.47-1.85,2.6-2.64,4.44-3.16,4.35-1.21,8.7-2.42,13.05-3.63,2.6-.72,5.65-1.37,7.79,.28,1.09,.84,1.71,2.13,2.3,3.37,1.72,3.65,3.46,7.37,3.99,11.37,.11,.84,.16,1.76-.28,2.49-.4,.67-1.11,1.06-1.8,1.42-4.25,2.26-14.32,10.17-19.08,7.6-4.37-2.36-8.93-12.64-10.19-17.2Z"/>
        <path class="cls-5" d="M237.22,629.84c4.58-2.29,9.55-4.13,14.72-4.19,1.55-.02,3.15,.14,4.55,.79,1.61,.75,2.82,2.1,3.96,3.42,5.16,5.97,9.96,12.21,14.38,18.69,1.06,1.56,2.15,3.31,1.89,5.15-5.14,1.23-10.54,.56-15.79-.11-7.08-.91-18.76-.18-24.5-4.97-7.18-5.99-6.67-14.03,.8-18.78Z"/>
        <path class="cls-5" d="M292.73,674.02c.4-.32,.83-.67,.96-1.17,.16-.6-.17-1.21-.48-1.74-1.74-2.93-3.64-5.75-5.69-8.47-.91-1.2-1.88-2.41-3.21-3.13-1.56-.84-3.4-.88-5.17-.9-11.53-.16-23.06-.32-34.59-.48-.67,0-1.38-.01-1.97,.32-1.92,1.07-.8,4,.52,5.75,3.68,4.9,7.36,9.81,11.04,14.71,2.99,3.98,6.95,12.22,11.38,14.58,4.93,2.62,9.25-4.06,12.58-7.06,4.75-4.3,9.63-8.44,14.65-12.42Z"/>
        <path class="cls-5" d="M288.39,682.27c5.17-2.46,11.92-3.42,16.2,.4,2.8,2.5,3.9,6.53,6.82,8.89,1.09,.88,2.42,1.51,3.28,2.62s1.01,2.99-.18,3.73c-.61,.38-1.37,.35-2.09,.32-11.62-.58-23.35,.97-34.89,.4-7.01-.35-4.36-3.41-.52-7.75,3.17-3.58,7.06-6.54,11.38-8.6Z"/>
      </g>
      <g>
        <path class="cls-5" d="M476.99,413.64c-2.05-3.12-.65-7.8-.48-11.52,.07-1.6,.35-3.34,1.55-4.4,1.35-1.18,3.5-1.04,5.03-.1s2.56,2.5,3.43,4.08c1.41,2.57,2.54,5.54,1.83,8.38-.58,2.31-2.41,4.26-4.68,4.97s-5.37,.59-6.68-1.4Z"/>
        <path class="cls-5" d="M476.3,427.79c-.6-1.58-1.03-3.36-.6-5.01,.48-1.86,1.94-3.15,3.4-4.12,1.79-1.19,3.72-2.11,5.73-2.72,.7-.21,1.45-.38,2.12-.07,1.27,.59,1.51,2.51,1.51,4.08,0,1.61-.05,3.23-.14,4.84-.1,1.77-.28,3.62-1.14,5.09-1.45,2.47-4.43,3.27-6.87,3.49-3.08,.28-2.92-2.68-4.02-5.57Z"/>
        <path class="cls-5" d="M475.12,449.8c-.12,.53-.24,1.12,.04,1.58,.36,.58,1.16,.67,1.85,.66,2.93-.04,6.16-.71,7.92-3.06,1.26-1.7,1.5-3.92,1.68-6.03,.18-2.06,.34-4.14,.07-6.19-.13-.96-.5-2.07-1.43-2.31-2.25-.59-7.41,1.09-8.48,3.36-.71,1.5-.4,3.66-.56,5.27-.21,2.26-.57,4.51-1.08,6.73Z"/>
        <path class="cls-5" d="M471.79,468.68c-.05,1.17,.1,2.46,.92,3.25,.64,.6,1.53,.77,2.38,.92,1.53,.26,3.09,.52,4.62,.28s3.06-1.08,3.78-2.51c.36-.72,.49-1.54,.62-2.35,.62-3.96,1.15-7.93,1.6-11.91,.12-1.03,.15-2.25-.64-2.88-.5-.4-1.17-.41-1.8-.38-2.67,.15-7.92,1.17-9.36,3.91-.72,1.36-.6,3.67-.94,5.19-.48,2.14-1.09,4.27-1.19,6.48Z"/>
        <path class="cls-5" d="M480.78,488.61c.42-4.09,.85-8.21,.44-12.3-.03-.29-.08-.62-.31-.8-.18-.15-.42-.17-.65-.19-2.22-.18-4.43-.36-6.65-.54-.57-.05-1.16-.09-1.68,.14-1.13,.49-1.39,1.95-1.48,3.18-.22,2.99-.34,5.99-.35,9,0,1.02,0,2.07,.41,3,.69,1.58,2.33,2.49,3.86,3.28,1.23,.64,4.74,3.19,5.66,2.15,.8-.9,.74-5.67,.74-6.9Z"/>
        <path class="cls-5" d="M463.15,505.26c1.01-2.95,2.01-5.9,3.02-8.86,.4-1.18,.93-2.5,2.1-2.94,.54-.21,1.15-.19,1.72-.1,3.72,.55,6.71,3.65,7.93,7.21s.88,7.47-.07,11.11c-.22,.84-.48,1.7-.98,2.41-.92,1.31-2.51,1.97-4.06,2.36-2.51,.62-9.91,1.49-11.61-1.26-1.33-2.14,1.21-7.75,1.95-9.93Z"/>
        <path class="cls-5" d="M458.16,525.92c.26-1.8,.81-3.74,2.35-4.77,.78-.52,1.72-.75,2.64-.96,1.98-.46,3.97-.93,5.95-1.39,1-.23,2.02-.47,3.05-.41s2.09,.46,2.69,1.27c1.12,1.5,.27,3.57-.4,5.31-.87,2.24-1.41,4.61-1.59,7-.06,.8-.09,1.62-.47,2.33-.48,.88-1.47,1.43-2.49,1.62s-2.06,.09-3.08-.05c-2.05-.27-4.08-.65-6.09-1.14-4.42-1.07-3.06-5.25-2.56-8.8Z"/>
        <path class="cls-5" d="M450,548.67c-.44,.85-.88,1.73-1.04,2.69s.05,2.05,.72,2.69c.57,.54,1.36,.68,2.11,.8,3.49,.56,6.97,1.12,10.46,1.68,.84,.14,1.72,.27,2.53-.01,1.1-.38,1.87-1.45,2.44-2.54,1.65-3.15,2.18-6.82,2.68-10.4,.13-.92,.23-1.96-.31-2.69-.33-.44-.83-.67-1.31-.89-3.13-1.4-6.26-2.8-9.39-4.2-2.83-1.26-3.36,2.07-4.5,4.3-1.47,2.85-2.93,5.71-4.4,8.56Z"/>
        <path class="cls-5" d="M445.93,560.8c.61-.84,1.25-1.7,2.14-2.22,1.15-.67,2.54-.68,3.86-.68,2.81,.01,5.62,.03,8.44,.04,2.06,0,4.59,.34,5.32,2.29,.41,1.1,.06,2.35-.51,3.38s-1.32,1.95-1.79,3.03c-.74,1.69-.85,3.88-2.39,4.86-.7,.45-1.56,.54-2.39,.6-2.41,.18-4.84,.24-7.26,.17-2.46-.07-7.83-.29-8.95-3.17-1.01-2.6,2.13-6.43,3.51-8.31Z"/>
        <path class="cls-5" d="M443.89,574.16c-1.58-.14-3.28-.26-4.64,.55-.88,.53-1.5,1.38-2.04,2.25-1.84,3-2.88,6.48-3,9.99-.03,.8,0,1.62,.32,2.34,.57,1.28,1.91,1.99,3.16,2.61,4.23,2.1,8.45,4.2,12.68,6.3,.53,.26,1.17,.53,1.7,.26,.39-.2,.59-.63,.76-1.03,2.44-5.79,4.58-12.01,5.59-18.23,.62-3.82-.23-3.73-3.9-4.09-3.54-.34-7.09-.64-10.63-.97Z"/>
        <path class="cls-5" d="M428.21,596.07c.42-.63,.88-1.26,1.54-1.62,.66-.36,1.44-.4,2.19-.43,1.72-.08,3.48-.15,5.14,.32,1.76,.51,3.28,1.6,4.76,2.67,1.74,1.26,3.48,2.52,5.22,3.77,.86,.62,1.75,1.28,2.27,2.21,.85,1.54,.47,3.44-.02,5.13-.82,2.82-1.92,5.57-3.28,8.18-.44,.85-.94,1.73-1.74,2.26-.75,.5-1.68,.64-2.58,.71-3.49,.26-6.95-.47-10.23-1.62-2.08-.73-8.26-2.48-9.4-4.43-2.21-3.77,4.05-14.03,6.13-17.14Z"/>
        <path class="cls-5" d="M440.04,628.48c.36-1.42,.59-3.04-.21-4.27-.49-.75-1.28-1.23-2.06-1.66-5.33-2.95-11.27-4.77-17.33-5.33-1.07-.1-2.22-.14-3.14,.42-.75,.46-1.23,1.25-1.67,2.02-2.85,5.04-5.13,10.39-6.82,15.93-.48,1.57,.79,3.14,2.43,2.99,4.99-.46,9.76,.67,14.78,.68,2.77,0,7.28,.83,9.43-.51,2.41-1.49,3.94-7.7,4.58-10.26Z"/>
        <path class="cls-5" d="M399.9,650.9c-.4,.93-.77,1.93-.59,2.93,.31,1.74,2.09,2.68,3.66,3.37,6.03,2.63,12.05,5.26,18.08,7.89,.54,.24,1.12,.48,1.71,.39,.81-.12,1.41-.85,1.89-1.54,3.9-5.66,5.54-12.63,7.09-19.41,.17-.73,.31-1.58-.15-2.16-.41-.5-1.11-.58-1.74-.61-6.91-.39-13.96-.85-20.88-.56-5.41,.23-6.99,4.86-9.06,9.71Z"/>
        <path class="cls-5" d="M389.26,664.29c1.17-1.72,2.44-3.45,4.12-4.36,2.5-1.36,5.42-.67,8.05,.25,4.68,1.64,9.21,3.92,13.46,6.8,1.49,1.01,3.06,2.27,3.51,4.25,.55,2.4-.77,4.83-2.25,6.56-5.76,6.7-19.74,9.07-27.51,7.19-3.75-.91-4.77-.6-8.03-2.58-6.5-3.95,5.9-14.07,8.65-18.11Z"/>
        <path class="cls-5" d="M366.82,689.98c2.03-.85,6.78-4.16,8.98-4.21,9.07-.21,15.66,2.83,24.73,2.62,1.62-.04,3.48,.03,4.51,1.28,.39,.48,.6,1.07,.72,1.67,.33,1.72-.12,3.58-1.2,4.96-2.19,2.79-6.22,3.16-9.77,3.29-2.58,.1-5.16,.19-7.74,.29-7.87,.29-15.99,.55-23.36-2.25-3.81-1.45,.96-6.75,3.14-7.66Z"/>
      </g>
      <g>
        <path class="cls-7" d="M403.89,515.03c-6.09-11.13-8.08-23.76-8.03-36.16,.04-8.94,1.11-17.95,4.22-26.44,5.03-13.73,15.27-25.63,27.64-34.91,12.37-9.27,29.71-18.26,44.59-23.83-1.77,2.45-5.84,18.26-10.14,25.51-3.76,6.32-7.71,12.72-13.56,17.6-5.85,4.88-14,8.08-21.85,6.71,4.53,1.53,9.76,3.82,10.37,8.13,.25,1.74-.36,3.48-.96,5.16-1.97,5.48-4.07,11.16-8.57,15.27-4.49,4.1-12.14,6.05-17.43,2.81,3.24,7.16,10.93,4.2,12.41,9.3s.39,10.48-.1,15.74c-.58,6.16-.28,12.43,1.16,18.48,.88,3.72,8,14.22,6.43,17.34-3.68,7.31-24.17-17.01-26.19-20.71Z"/>
        <path class="cls-7" d="M442.59,374.22c-9.65-5.39-20.12-9.87-31.15-10.46-15.15-.82-30.12,5.95-41.1,16.43-10.98,10.47-23.14,24.87-27.69,39.34-2.33,7.4-2.75,9.16-5.17,16.53-2.07,6.32-2.83,10.01-4.13,16.53s.62,21.43,3.87,27.24c8.02-6.43,13.7-15.72,15.77-25.79-2.44-1.66-4.88-3.31-7.33-4.97,3.3,2.74,8.42,1.96,11.98-.43s6.03-6.04,8.81-9.31c3.4-4,7.43-7.61,9.68-12.35s2.11-11.2-2.04-14.42c4.4,.18,8.69,2.19,11.65,5.45,1.19-6.18,6.7-10.5,12.12-13.68,14.48-8.5,31.23-13,48-13.14,4.04-.03,23.34-2.64,23.34-2.64,0,0-22.22-11.84-26.63-14.31Z"/>
        <path class="cls-7" d="M475.55,390.28c-1.14-16.36-6.61-38.66-14.59-53.13s-20.96-26.79-37.02-31.79c-7.99-2.49-16.45-3.12-24.83-3.37-8.91-.26-18.04-.08-26.39,2.94-8.2,2.97-15.11,8.48-21.86,13.89l-17.61,14.13c4.02,1.3,7.69,2.6,11.71,3.9,9.18,2.97,18.7,5.98,28.28,4.92s19.31-7.35,21.15-16.82c.12,4.99-1.39,10-4.25,14.1,6.86,2.26,14.02,3.59,21.23,3.96,3.69,.19,7.66,.04,10.66-2.11,3.5-2.5,4.79-7.02,5.84-11.19-.36,4.46-.73,8.92-1.09,13.38,4,2.1,8.01,4.21,12.01,6.31,1.62-1.16,2.89-2.79,3.61-4.65-.43,3.05-.75,6.32,.65,9.07,1.18,2.33,3.43,3.89,5.55,5.43,6.36,4.63,10.99,9.44,16.27,15.27,1.34,1.48,9.16,14.74,10.67,15.73Z"/>
        <path class="cls-7" d="M484.58,312.52c4.47-11.48,11.55-21.75,18.9-31.64,5.02-6.77,10.24-13.46,16.48-19.12,11.09-10.04,24.94-16.42,38.7-22.28-3.03,11.87-6.06,23.74-9.1,35.6-.27,1.06-.59,2.19-1.45,2.86-.88,.68-2.09,.71-3.2,.67-3.73-.11-7.46-.48-11.14-1.1,3,1.69,5.79,3.75,8.3,6.12,.74,.7,1.49,1.49,1.65,2.5,.2,1.25-.56,2.42-1.29,3.46-5.32,7.59-10.63,15.18-15.95,22.77-6.91-1.42-14.24-.7-20.73,2.03,5.03,1.12,11.1,3.33,11.71,8.45,.46,3.84-2.57,7.12-5.31,9.85-7.15,7.1-13.97,14.64-19.54,23.07-2.74,4.15-5.18,8.5-7.13,13.08-1.13,2.66-6.27,16.94-6.27,16.94,0,0-1.28-35.04-1.04-40.25,.53-11.24,2.29-22.49,6.39-33.01Z"/>
        <path class="cls-7" d="M654.37,332.18c-5.8-9.66-16.56-15.53-27.6-17.78s-22.46-1.29-33.65,0c-10.36,1.2-20.78,2.7-30.53,6.4-7.89,2.99-20.38,6.41-27.57,10.82-17.81,10.94-30.61,23.73-42.53,40.91-3.93,5.67-7.17,11.95-8.5,18.72,43.88-16.25,40.79-12.83,50.52-30.85,.68,3.53,1.36,7.06,2.04,10.59,9.11-1.82,28.66-5.92,37.77-7.74,1.42-5.05-4.59-10.21-6.85-13.05,7.98-.6,15.37,1.5,16.04,9.48,3.06-2.55,15-6.51,23.48-7.15,.38-5.71,1.68-7.63,2.06-13.34,3.11,2.42,5.44,5.84,6.53,9.63,11-5.92,26.7-13.51,38.79-16.66Z"/>
        <path class="cls-7" d="M542.66,396c13.98,5.98,24.96,17.42,33.7,29.86,17.76,25.28,27.76,55.94,28.32,86.83-10.8-5.39-20.46-13.03-28.2-22.29-4.69-5.61-8.77-12.04-10.02-19.24-1.25-7.21,.81-15.32,6.56-19.85-6.99,1.1-14.06,1.65-21.14,1.65,1.34-4.07,4.07-7.66,7.62-10.05-5.86-.31-11.71-.61-17.57-.92-1.85-.1-9.44-11.84-11.12-13.73-4.05-4.57-8.31-8.94-12.77-13.11-8.85-8.29-22.52-14.78-39.28-18.97,13.95-6.07,50.25-6.01,63.89-.17Z"/>
      </g>
      <g>
        <path class="cls-7" d="M212.66,281.9c-18.15-24.41-52.36-48.92-82.1-55.34-29.73-6.42-61.74-1.69-88.34,13.05-6.24,3.46-12.81,8.43-13.37,15.55,13.71-2.01,27.8,2.73,39.79,9.69-3-6.06-1.36-14.07,3.78-18.46,4.64,6.16,7.13,13.92,6.95,21.63,8.47,1.05,16.95,2.1,25.42,3.15-2.44-8.68,3.09-18.81,11.72-21.44,4.59,6.74,8.41,14.01,11.35,21.62,6.46-.36,12.97,.02,19.35,1.11-.58-2.97-1.17-6.05-.45-8.99s3.11-5.7,6.13-5.81c5.38-.19,7.46,6.85,7.82,12.23,15.36-1.21,37.38,6.99,51.96,12Z"/>
        <path class="cls-7" d="M215.93,289.15c-16.32-6.81-23.22-10.18-33.67-10.98-9.69-.74-28.68,2.09-40.87,8.42s-22.44,15.8-32.01,25.65c-18.14,18.7-35.4,42.4-32.23,68.25,.43,3.49,1.92,7.63,5.38,8.19,8.88-8.7,17.76-17.4,26.64-26.11,4.52-4.43,9.23-9.16,10.93-15.26s-.92-13.89-7.02-15.59l23.86,4.26c.04-5.37,.05-10.72,.09-16.09,5.63,.55,11.22,1.51,16.71,2.87-2.09-3.39-3.75-7.05-4.94-10.85,2.77,.58,5.54,1.16,8.31,1.75,.8,.17,1.63,.34,2.43,.15,.73-.17,1.36-.62,1.96-1.07,6.91-5.11,13.37-10.84,20.6-15.49,7.23-4.65,25.23-7.89,33.82-8.12Z"/>
        <path class="cls-7" d="M215.56,283.35c22.83-53.63,7.41-78.77-16.42-104.23-6.48-6.92-14.06-12.81-22.29-17.51-13.71-7.84-29.37-12.43-45.16-12.45s-31.67,4.62-44.54,13.77c8.83,14.13,24.09,21.35,39.27,28.2,2,.91,4.12,1.83,6.31,1.64,1.68-.15,3.23-.95,4.7-1.78,7.43-4.21,14.1-9.75,19.62-16.26-1.38,7.62-5.22,14.77-10.81,20.12,10.4,3.53,20.42,8.18,29.84,13.84,6.47-1.56,12.04-6.48,14.39-12.71-.07,6.09-1.88,12.15-5.17,17.27,16.87,17.4,27.21,46.08,30.27,70.12Z"/>
        <path class="cls-7" d="M364.54,170.77c-12.34-3.41-25.55-3.01-38-.03s-24.19,8.49-35.14,15.12c-7.67,4.64-15.01,9.85-21.69,15.83-10.92,9.77-19.96,21.47-27.84,33.82-7.47,11.71-17.25,30.49-19.42,44.21,16.67-19.57,44.93-34.06,70.47-42.61-2.18-6.34-5.99-12.11-10.96-16.61,5.9,.73,11.55,3.31,15.98,7.27,.77,.69,1.54,1.45,2.53,1.76,1.79,.58,3.68-.43,5.27-1.45,7.49-4.78,14.41-10.45,20.59-16.84,.45-.46,.9-.95,1.09-1.56,.26-.84-.03-1.73-.35-2.55-1.11-2.79-2.69-5.39-4.65-7.66,4.88,.8,9.47,3.32,12.78,7,5.53-3.84,9.23-9.76,13.28-15.13,5.01-6.64,12.03-13.31,16.06-20.59Z"/>
        <path class="cls-7" d="M414.64,248.91c-16.74-11-38.09-11.44-58.11-10.85-18.03,.53-36.15,1.62-53.75,5.6-17.6,3.98-46.47,12.94-60.5,24.28-6.84,5.52-13.15,9.56-18.14,16.8,23.02,2.22,58.04,4.37,81.16,3.62,1.6-.05,3.24-.12,4.74-.69,5.59-2.14,6.38-9.6,6.25-15.59,4.13,3.63,6.41,9.26,5.97,14.74,6.05-3.12,13.22-3.04,19.7-5.14s12.85-8.19,11.12-14.77c1.83,5.39,7.84,8.48,13.53,8.57s11.13-2.2,16.25-4.68c10.6-5.12,22.28-14.98,31.8-21.89Z"/>
        <path class="cls-7" d="M227.04,292.42c13.7,5.07,43.45,12.86,54.96,21.85s21.11,20.85,25.74,34.7c3.51,10.5,4.07,21.78,3.26,32.82-1.82,24.68-11.9,50.52-33.11,63.27,3.23-16.2,4.49-32.79,3.73-49.29,3.86-2.42,7.49-5.2,10.83-8.29-2.72,.32-5.44,.65-8.15,.97l-4.09-9.16c5.67-3,10.67-7.26,14.55-12.36-15.78-1.1-31.12-7.69-42.79-18.38,8.37-1.22,16.35-4.97,22.63-10.64-12.03,.86-24.34-3.33-33.35-11.33-7.08-6.29-17.06-18.6-18.22-28.18-1.46-12.11-4.82-9.25,4-5.98Z"/>
      </g>
      <path class="cls-2" d="M215.22,272.21c-18.15-24.41-52.36-48.92-82.1-55.34-29.73-6.42-61.74-1.69-88.34,13.05-6.24,3.46-12.81,8.43-13.37,15.55,13.71-2.01,27.8,2.73,39.79,9.69-3-6.06-1.36-14.07,3.78-18.46,4.64,6.16,7.13,13.92,6.95,21.63,8.47,1.05,16.95,2.1,25.42,3.15-2.44-8.68,3.09-18.81,11.72-21.44,4.59,6.74,8.41,14.01,11.35,21.62,6.46-.36,12.97,.02,19.35,1.11-.58-2.97-1.17-6.05-.45-8.99s3.11-5.7,6.13-5.81c5.38-.19,7.46,6.85,7.82,12.23,15.36-1.21,37.38,6.99,51.96,12Z"/>
      <path class="cls-3" d="M218.48,279.45c-16.32-6.81-23.22-10.18-33.67-10.98-9.69-.74-28.68,2.09-40.87,8.42s-22.44,15.8-32.01,25.65c-18.14,18.7-35.4,42.4-32.23,68.25,.43,3.49,1.92,7.63,5.38,8.19,8.88-8.7,17.76-17.4,26.64-26.11,4.52-4.43,9.23-9.16,10.93-15.26s-.92-13.89-7.02-15.59l23.86,4.26c.04-5.37,.05-10.72,.09-16.09,5.63,.55,11.22,1.51,16.71,2.87-2.09-3.39-3.75-7.05-4.94-10.85,2.77,.58,5.54,1.16,8.31,1.75,.8,.17,1.63,.34,2.43,.15,.73-.17,1.36-.62,1.96-1.07,6.91-5.11,13.37-10.84,20.6-15.49s25.23-7.89,33.82-8.12Z"/>
      <path class="cls-3" d="M218.12,273.66c22.83-53.63,7.41-78.77-16.42-104.23-6.48-6.92-14.06-12.81-22.29-17.51-13.71-7.84-29.37-12.43-45.16-12.45s-31.67,4.62-44.54,13.77c8.83,14.13,24.09,21.35,39.27,28.2,2,.91,4.12,1.83,6.31,1.64,1.68-.15,3.23-.95,4.7-1.78,7.43-4.21,14.1-9.75,19.62-16.26-1.38,7.62-5.22,14.77-10.81,20.12,10.4,3.53,20.42,8.18,29.84,13.84,6.47-1.56,12.04-6.48,14.39-12.71-.07,6.09-1.88,12.15-5.17,17.27,16.87,17.4,27.21,46.08,30.27,70.12Z"/>
      <path class="cls-2" d="M367.09,161.07c-12.34-3.41-25.55-3.01-38-.03s-24.19,8.49-35.14,15.12c-7.67,4.64-15.01,9.85-21.69,15.83-10.92,9.77-19.96,21.47-27.84,33.82-7.47,11.71-17.25,30.49-19.42,44.21,16.67-19.57,44.93-34.06,70.47-42.61-2.18-6.34-5.99-12.11-10.96-16.61,5.9,.73,11.55,3.31,15.98,7.27,.77,.69,1.54,1.45,2.53,1.76,1.79,.58,3.68-.43,5.27-1.45,7.49-4.78,14.41-10.45,20.59-16.84,.45-.46,.9-.95,1.09-1.56,.26-.84-.03-1.73-.35-2.55-1.11-2.79-2.69-5.39-4.65-7.66,4.88,.8,9.47,3.32,12.78,7,5.53-3.84,9.23-9.76,13.28-15.13,5.01-6.64,12.03-13.31,16.06-20.59Z"/>
      <path class="cls-3" d="M417.19,239.21c-16.74-11-38.09-11.44-58.11-10.85-18.03,.53-36.15,1.62-53.75,5.6-17.6,3.98-46.47,12.94-60.5,24.28-6.84,5.52-13.15,9.56-18.14,16.8,23.02,2.22,58.04,4.37,81.16,3.62,1.6-.05,3.24-.12,4.74-.69,5.59-2.14,6.38-9.6,6.25-15.59,4.13,3.63,6.41,9.26,5.97,14.74,6.05-3.12,13.22-3.04,19.7-5.14s12.85-8.19,11.12-14.77c1.83,5.39,7.84,8.48,13.53,8.57s11.13-2.2,16.25-4.68c10.6-5.12,22.28-14.98,31.8-21.89Z"/>
      <path class="cls-2" d="M229.59,282.72c13.7,5.07,43.45,12.86,54.96,21.85,11.51,9,21.11,20.85,25.74,34.7,3.51,10.5,4.07,21.78,3.26,32.82-1.82,24.68-11.9,50.52-33.11,63.27,3.23-16.2,4.49-32.79,3.73-49.29,3.86-2.42,7.49-5.2,10.83-8.29-2.72,.32-5.44,.65-8.15,.97-1.36-3.05-2.73-6.11-4.09-9.16,5.67-3,10.67-7.26,14.55-12.36-15.78-1.1-31.12-7.69-42.79-18.38,8.37-1.22,16.35-4.97,22.63-10.64-12.03,.86-24.34-3.33-33.35-11.33-7.08-6.29-17.06-18.6-18.22-28.18-1.46-12.11-4.82-9.25,4-5.98Z"/>
      <g>
        <path class="cls-8" d="M215.39,289.5c1.12-.95,2.55-1.86,3.96-1.45,1.05,.31,1.78,1.32,2.05,2.38s.19,2.18,.09,3.27c-.37,4.34-.74,8.69-1.11,13.03-.16,1.93-.43,4.07-1.91,5.32-.65,.55-1.48,.86-2.3,1.09-2.57,.73-7.59,1.37-9.95-.32s-1.16-4.83-.58-7.29c1.47-6.19,4.9-11.92,9.76-16.04Z"/>
        <path class="cls-8" d="M214.17,315.05c1.22-.26,2.8-.36,3.38,.74,.46,.87-.06,1.92-.54,2.77-2.6,4.64-4.41,9.73-5.33,14.97-.22,1.29-.48,2.72-1.53,3.5-.63,.47-1.46,.6-2.25,.58-2.7-.08-5.14-1.9-6.5-4.23s-1.78-5.1-1.78-7.8c0-8.82,7.76-9.11,14.54-10.54Z"/>
        <path class="cls-8" d="M198.34,334.46c-.42-.36-.93-.75-1.47-.62-.47,.11-.76,.59-.98,1.02-2.32,4.63-3.05,9.87-3.75,15-.12,.89-.23,1.83,.15,2.64,.41,.85,1.29,1.37,2.11,1.83,2.35,1.31,4.7,2.63,7.05,3.94,.89,.5,1.81,1,2.82,1.1,.44,.04,.9,0,1.26-.26,.3-.22,.48-.57,.64-.91,1.58-3.49,2.7-10.14,1.99-13.89s-7.01-7.4-9.83-9.85Z"/>
        <path class="cls-8" d="M189.11,362.42c.33-1.23,.69-2.48,1.41-3.53s1.87-1.89,3.14-1.92c1-.02,1.94,.44,2.83,.9,1.14,.58,2.27,1.16,3.41,1.74,1.24,.64,2.54,1.31,3.34,2.45,1.9,2.69,.27,6.34,.1,9.63-.13,2.52,.6,5.32-.84,7.4-.73,1.05-1.89,1.7-3.03,2.26-3.39,1.69-6.99,2.98-10.68,3.84-5.74,1.34-3.69-3.49-3.11-7,.89-5.31,2.02-10.58,3.43-15.77Z"/>
        <path class="cls-8" d="M201.75,392.5c-.27-1.52-.64-3.05-1.44-4.37s-2.11-2.4-3.64-2.6c-1.43-.19-2.83,.41-4.16,.99-2.24,.98-4.56,2.03-6.12,3.91-1.2,1.45-1.85,3.35-1.8,5.24,.03,.96,.25,1.95,.88,2.67,.48,.56,1.16,.9,1.82,1.23,2.94,1.43,10.03,5.62,13.35,4.91,3.51-.75,1.6-9.24,1.11-11.98Z"/>
        <path class="cls-8" d="M201.4,419.07c.06-2.52,.11-5.11-.89-7.47-1.97-4.63-7.6-7.39-13.16-8.49-.95-.19-1.99-.33-2.85,.06-1.17,.53-1.54,1.81-1.72,2.94-.8,4.97-.38,10.01,.04,15.02,.26,3.11,.73,6.58,3.51,8.55,2.43,1.72,5.87,1.74,9.02,1.67,3.55-.08,5.06,.02,5.82-2.92s.16-6.45,.23-9.36Z"/>
        <path class="cls-8" d="M198.8,452.11c.97-.86,1.92-1.78,2.53-2.93,1.69-3.17,.4-7.03-.91-10.37-.53-1.36-1.09-2.76-2.11-3.81-2.18-2.25-5.73-2.25-8.86-2.1-1.37,.07-2.81,.16-3.93,.94-1.66,1.15-2.09,3.37-2.3,5.38-.5,4.63-2.33,15.22,1.09,19.1s11.81-3.83,14.51-6.22Z"/>
        <path class="cls-8" d="M184.53,468.17c-.07-.67-.13-1.36,.08-2,.27-.81,.94-1.44,1.58-2.03,4.72-4.35,10.16-8.99,16.83-9.08,.44,0,.91,.02,1.28,.23,.41,.24,.63,.67,.81,1.09,1.13,2.62,1.46,5.47,1.78,8.28,.46,4.03,.91,8.05,1.37,12.08,.14,1.26,.28,2.59-.27,3.75-.63,1.33-2.07,2.2-3.57,2.6s-3.1,.39-4.67,.39c-3.62,0-11.16,1.9-13.36-1.54s-1.45-9.93-1.84-13.77Z"/>
        <path class="cls-8" d="M188.41,488.67c-1.4,1.43-1.88,3.57-1.74,5.57s.84,3.91,1.53,5.79c.42,1.15,.85,2.3,1.27,3.46,.35,.95,.71,1.92,1.38,2.67,1.29,1.45,3.42,1.76,5.36,1.79,3.23,.04,6.46-.47,9.52-1.5,1.16-.39,2.32-.87,3.22-1.7,4.27-3.91,1.54-13.6-2.8-16.66-3.9-2.75-14.37-2.86-17.73,.59Z"/>
        <path class="cls-8" d="M213.73,515.37c-1.07-2.13-2.33-4.43-4.56-5.29-1.03-.4-2.16-.43-3.26-.42-2.12,.02-4.24,.18-6.34,.5-1.2,.18-2.41,.42-3.48,.97-2.69,1.37-4.1,4.55-4.07,7.57s1.29,5.89,2.82,8.5c.57,.98,1.2,1.95,2.05,2.7,.87,.77,1.95,1.28,3.05,1.66,3.95,1.38,13.47,3.08,16.76-.5,3.78-4.1-1.02-11.84-2.96-15.69Z"/>
        <path class="cls-8" d="M222.26,553.18c.7-.92,1.4-1.9,1.62-3.04,.26-1.34-.2-2.7-.65-3.99-.94-2.7-2-5.58-4.33-7.25-1.43-1.03-3.18-1.47-4.88-1.9-5.47-1.37-10.95-2.75-16.55-3.42-.81-.1-1.77-.12-2.29,.5-.34,.41-.38,.99-.41,1.52-.42,10.58,1.74,21.44,6.4,30.97,3.09,6.31,5.99,3.17,9.97-.76,4-3.94,7.71-8.17,11.1-12.65Z"/>
        <path class="cls-8" d="M217.77,563.9c3.24-2.65,8.06-4.55,11.7-2.41,2.71,1.59,3.72,4.79,4.64,7.68,2.19,6.9,4.99,13.62,8.36,20.08,.36,.69,.74,1.43,.67,2.2-.19,1.96-2.85,2.55-4.91,2.74-5.82,.53-11.56,1.88-16.96,3.99-1.17,.46-2.46,.96-3.67,.61-1.45-.42-2.23-1.87-2.81-3.19-2.32-5.25-5.67-12.42-5.47-18.23,.16-4.93,4.72-10.4,8.47-13.47Z"/>
        <path class="cls-8" d="M219.07,606.36c-.23-.83-.42-1.71-.21-2.55,.47-1.85,2.6-2.64,4.44-3.16,4.35-1.21,8.7-2.42,13.05-3.63,2.6-.72,5.65-1.37,7.79,.28,1.09,.84,1.71,2.13,2.3,3.37,1.72,3.65,3.46,7.37,3.99,11.37,.11,.84,.16,1.76-.28,2.49-.4,.67-1.11,1.06-1.8,1.42-4.25,2.26-14.32,10.17-19.08,7.6-4.37-2.36-8.93-12.64-10.19-17.2Z"/>
        <path class="cls-8" d="M240.99,624.18c4.58-2.29,9.55-4.13,14.72-4.19,1.55-.02,3.15,.14,4.55,.79,1.61,.75,2.82,2.1,3.96,3.42,5.16,5.97,9.96,12.21,14.38,18.69,1.06,1.56,2.15,3.31,1.89,5.15-5.14,1.23-10.54,.56-15.79-.11-7.08-.91-18.76-.18-24.5-4.97-7.18-5.99-6.67-14.03,.8-18.78Z"/>
        <path class="cls-8" d="M296.51,668.36c.4-.32,.83-.67,.96-1.17,.16-.6-.17-1.21-.48-1.74-1.74-2.93-3.64-5.75-5.69-8.47-.91-1.2-1.88-2.41-3.21-3.13-1.56-.84-3.4-.88-5.17-.9-11.53-.16-23.06-.32-34.59-.48-.67,0-1.38-.01-1.97,.32-1.92,1.07-.8,4,.52,5.75,3.68,4.9,7.36,9.81,11.04,14.71,2.99,3.98,6.95,12.22,11.38,14.58,4.93,2.62,9.25-4.06,12.58-7.06,4.75-4.3,9.63-8.44,14.65-12.42Z"/>
        <path class="cls-8" d="M292.16,676.61c5.17-2.46,11.92-3.42,16.2,.4,2.8,2.5,3.9,6.53,6.82,8.89,1.09,.88,2.42,1.51,3.28,2.62s1.01,2.99-.18,3.73c-.61,.38-1.37,.35-2.09,.32-11.62-.58-23.35,.97-34.89,.4-7.01-.35-4.36-3.41-.52-7.75,3.17-3.58,7.06-6.54,11.38-8.6Z"/>
      </g>
      <path class="cls-2" d="M402.75,505.93c-6.09-11.13-8.08-23.76-8.03-36.16,.04-8.94,1.11-17.95,4.22-26.44,5.03-13.73,15.27-25.63,27.64-34.91,12.37-9.27,29.71-18.26,44.59-23.83-1.77,2.45-5.84,18.26-10.14,25.51-3.76,6.32-7.71,12.72-13.56,17.6-5.85,4.88-14,8.08-21.85,6.71,4.53,1.53,9.76,3.82,10.37,8.13,.25,1.74-.36,3.48-.96,5.16-1.97,5.48-4.07,11.16-8.57,15.27-4.49,4.1-12.14,6.05-17.43,2.81,3.24,7.16,10.93,4.2,12.41,9.3s.39,10.48-.1,15.74c-.58,6.16-.28,12.43,1.16,18.48,.88,3.72,8,14.22,6.43,17.34-3.68,7.31-24.17-17.01-26.19-20.71Z"/>
      <path class="cls-3" d="M441.46,365.12c-9.65-5.39-20.12-9.87-31.15-10.46-15.15-.82-30.12,5.95-41.1,16.43-10.98,10.47-23.14,24.87-27.69,39.34-2.33,7.4-2.75,9.16-5.17,16.53-2.07,6.32-2.83,10.01-4.13,16.53-1.3,6.52,.62,21.43,3.87,27.24,8.02-6.43,13.7-15.72,15.77-25.79-2.44-1.66-4.88-3.31-7.33-4.97,3.3,2.74,8.42,1.96,11.98-.43s6.03-6.04,8.81-9.31c3.4-4,7.43-7.61,9.68-12.35s2.11-11.2-2.04-14.42c4.4,.18,8.69,2.19,11.65,5.45,1.19-6.18,6.7-10.5,12.12-13.68,14.48-8.5,31.23-13,48-13.14,4.04-.03,23.34-2.64,23.34-2.64,0,0-22.22-11.84-26.63-14.31Z"/>
      <path class="cls-2" d="M474.41,381.18c-1.14-16.36-6.61-38.66-14.59-53.13-7.98-14.46-20.96-26.79-37.02-31.79-7.99-2.49-16.45-3.12-24.83-3.37-8.91-.26-18.04-.08-26.39,2.94-8.2,2.97-15.11,8.48-21.86,13.89l-17.61,14.13c4.02,1.3,7.69,2.6,11.71,3.9,9.18,2.97,18.7,5.98,28.28,4.92,9.59-1.06,19.31-7.35,21.15-16.82,.12,4.99-1.39,10-4.25,14.1,6.86,2.26,14.02,3.59,21.23,3.96,3.69,.19,7.66,.04,10.66-2.11,3.5-2.5,4.79-7.02,5.84-11.19-.36,4.46-.73,8.92-1.09,13.38,4,2.1,8.01,4.21,12.01,6.31,1.62-1.16,2.89-2.79,3.61-4.65-.43,3.05-.75,6.32,.65,9.07,1.18,2.33,3.43,3.89,5.55,5.43,6.36,4.63,10.99,9.44,16.27,15.27,1.34,1.48,9.16,14.74,10.67,15.73Z"/>
      <path class="cls-3" d="M483.45,303.42c4.47-11.48,11.55-21.75,18.9-31.64,5.02-6.77,10.24-13.46,16.48-19.12,11.09-10.04,24.94-16.42,38.7-22.28-3.03,11.87-6.06,23.74-9.1,35.6-.27,1.06-.59,2.19-1.45,2.86-.88,.68-2.09,.71-3.2,.67-3.73-.11-7.46-.48-11.14-1.1,3,1.69,5.79,3.75,8.3,6.12,.74,.7,1.49,1.49,1.65,2.5,.2,1.25-.56,2.42-1.29,3.46-5.32,7.59-10.63,15.18-15.95,22.77-6.91-1.42-14.24-.7-20.73,2.03,5.03,1.12,11.1,3.33,11.71,8.45,.46,3.84-2.57,7.12-5.31,9.85-7.15,7.1-13.97,14.64-19.54,23.07-2.74,4.15-5.18,8.5-7.13,13.08-1.13,2.66-6.27,16.94-6.27,16.94,0,0-1.28-35.04-1.04-40.25,.53-11.24,2.29-22.49,6.39-33.01Z"/>
      <path class="cls-2" d="M653.24,323.08c-5.8-9.66-16.56-15.53-27.6-17.78-11.04-2.25-22.46-1.29-33.65,0-10.36,1.2-20.78,2.7-30.53,6.4-7.89,2.99-20.38,6.41-27.57,10.82-17.81,10.94-30.61,23.73-42.53,40.91-3.93,5.67-7.17,11.95-8.5,18.72,43.88-16.25,40.79-12.83,50.52-30.85,.68,3.53,1.36,7.06,2.04,10.59,9.11-1.82,28.66-5.92,37.77-7.74,1.42-5.05-4.59-10.21-6.85-13.05,7.98-.6,15.37,1.5,16.04,9.48,3.06-2.55,15-6.51,23.48-7.15,.38-5.71,1.68-7.63,2.06-13.34,3.11,2.42,5.44,5.84,6.53,9.63,11-5.92,26.7-13.51,38.79-16.66Z"/>
      <path class="cls-3" d="M541.52,386.9c13.98,5.98,24.96,17.42,33.7,29.86,17.76,25.28,27.76,55.94,28.32,86.83-10.8-5.39-20.46-13.03-28.2-22.29-4.69-5.61-8.77-12.04-10.02-19.24s.81-15.32,6.56-19.85c-6.99,1.1-14.06,1.65-21.14,1.65,1.34-4.07,4.07-7.66,7.62-10.05-5.86-.31-11.71-.61-17.57-.92-1.85-.1-9.44-11.84-11.12-13.73-4.05-4.57-8.31-8.94-12.77-13.11-8.85-8.29-22.52-14.78-39.28-18.97,13.95-6.07,50.25-6.01,63.89-.17Z"/>
      <g>
        <path class="cls-8" d="M475.14,409.09c-2.05-3.12-.65-7.8-.48-11.52,.07-1.6,.35-3.34,1.55-4.4,1.35-1.18,3.5-1.04,5.03-.1s2.56,2.5,3.43,4.08c1.41,2.57,2.54,5.54,1.83,8.38-.58,2.31-2.41,4.26-4.68,4.97s-5.37,.59-6.68-1.4Z"/>
        <path class="cls-8" d="M474.45,423.24c-.6-1.58-1.03-3.36-.6-5.01,.48-1.86,1.94-3.15,3.4-4.12,1.79-1.19,3.72-2.11,5.73-2.72,.7-.21,1.45-.38,2.12-.07,1.27,.59,1.51,2.51,1.51,4.08,0,1.61-.05,3.23-.14,4.84-.1,1.77-.28,3.62-1.14,5.09-1.45,2.47-4.43,3.27-6.87,3.49-3.08,.28-2.92-2.68-4.02-5.57Z"/>
        <path class="cls-8" d="M473.27,445.25c-.12,.53-.24,1.12,.04,1.58,.36,.58,1.16,.67,1.85,.66,2.93-.04,6.16-.71,7.92-3.06,1.26-1.7,1.5-3.92,1.68-6.03,.18-2.06,.34-4.14,.07-6.19-.13-.96-.5-2.07-1.43-2.31-2.25-.59-7.41,1.09-8.48,3.36-.71,1.5-.4,3.66-.56,5.27-.21,2.26-.57,4.51-1.08,6.73Z"/>
        <path class="cls-8" d="M469.94,464.13c-.05,1.17,.1,2.46,.92,3.25,.64,.6,1.53,.77,2.38,.92,1.53,.26,3.09,.52,4.62,.28s3.06-1.08,3.78-2.51c.36-.72,.49-1.54,.62-2.35,.62-3.96,1.15-7.93,1.6-11.91,.12-1.03,.15-2.25-.64-2.88-.5-.4-1.17-.41-1.8-.38-2.67,.15-7.92,1.17-9.36,3.91-.72,1.36-.6,3.67-.94,5.19-.48,2.14-1.09,4.27-1.19,6.48Z"/>
        <path class="cls-8" d="M478.93,484.06c.42-4.09,.85-8.21,.44-12.3-.03-.29-.08-.62-.31-.8-.18-.15-.42-.17-.65-.19-2.22-.18-4.43-.36-6.65-.54-.57-.05-1.16-.09-1.68,.14-1.13,.49-1.39,1.95-1.48,3.18-.22,2.99-.34,5.99-.35,9,0,1.02,0,2.07,.41,3,.69,1.58,2.33,2.49,3.86,3.28,1.23,.64,4.74,3.19,5.66,2.15,.8-.9,.74-5.67,.74-6.9Z"/>
        <path class="cls-8" d="M461.3,500.71c1.01-2.95,2.01-5.9,3.02-8.86,.4-1.18,.93-2.5,2.1-2.94,.54-.21,1.15-.19,1.72-.1,3.72,.55,6.71,3.65,7.93,7.21s.88,7.47-.07,11.11c-.22,.84-.48,1.7-.98,2.41-.92,1.31-2.51,1.97-4.06,2.36-2.51,.62-9.91,1.49-11.61-1.26-1.33-2.14,1.21-7.75,1.95-9.93Z"/>
        <path class="cls-8" d="M456.31,521.37c.26-1.8,.81-3.74,2.35-4.77,.78-.52,1.72-.75,2.64-.96,1.98-.46,3.97-.93,5.95-1.39,1-.23,2.02-.47,3.05-.41s2.09,.46,2.69,1.27c1.12,1.5,.27,3.57-.4,5.31-.87,2.24-1.41,4.61-1.59,7-.06,.8-.09,1.62-.47,2.33-.48,.88-1.47,1.43-2.49,1.62s-2.06,.09-3.08-.05c-2.05-.27-4.08-.65-6.09-1.14-4.42-1.07-3.06-5.25-2.56-8.8Z"/>
        <path class="cls-8" d="M448.15,544.12c-.44,.85-.88,1.73-1.04,2.69s.05,2.05,.72,2.69c.57,.54,1.36,.68,2.11,.8,3.49,.56,6.97,1.12,10.46,1.68,.84,.14,1.72,.27,2.53-.01,1.1-.38,1.87-1.45,2.44-2.54,1.65-3.15,2.18-6.82,2.68-10.4,.13-.92,.23-1.96-.31-2.69-.33-.44-.83-.67-1.31-.89-3.13-1.4-6.26-2.8-9.39-4.2-2.83-1.26-3.36,2.07-4.5,4.3-1.47,2.85-2.93,5.71-4.4,8.56Z"/>
        <path class="cls-8" d="M444.08,556.25c.61-.84,1.25-1.7,2.14-2.22,1.15-.67,2.54-.68,3.86-.68,2.81,.01,5.62,.03,8.44,.04,2.06,0,4.59,.34,5.32,2.29,.41,1.1,.06,2.35-.51,3.38s-1.32,1.95-1.79,3.03c-.74,1.69-.85,3.88-2.39,4.86-.7,.45-1.56,.54-2.39,.6-2.41,.18-4.84,.24-7.26,.17-2.46-.07-7.83-.29-8.95-3.17-1.01-2.6,2.13-6.43,3.51-8.31Z"/>
        <path class="cls-8" d="M442.05,569.61c-1.58-.14-3.28-.26-4.64,.55-.88,.53-1.5,1.38-2.04,2.25-1.84,3-2.88,6.48-3,9.99-.03,.8,0,1.62,.32,2.34,.57,1.28,1.91,1.99,3.16,2.61,4.23,2.1,8.45,4.2,12.68,6.3,.53,.26,1.17,.53,1.7,.26,.39-.2,.59-.63,.76-1.03,2.44-5.79,4.58-12.01,5.59-18.23,.62-3.82-.23-3.73-3.9-4.09s-7.09-.64-10.63-.97Z"/>
        <path class="cls-8" d="M426.36,591.52c.42-.63,.88-1.26,1.54-1.62,.66-.36,1.44-.4,2.19-.43,1.72-.08,3.48-.15,5.14,.32,1.76,.51,3.28,1.6,4.76,2.67,1.74,1.26,3.48,2.52,5.22,3.77,.86,.62,1.75,1.28,2.27,2.21,.85,1.54,.47,3.44-.02,5.13-.82,2.82-1.92,5.57-3.28,8.18-.44,.85-.94,1.73-1.74,2.26-.75,.5-1.68,.64-2.58,.71-3.49,.26-6.95-.47-10.23-1.62-2.08-.73-8.26-2.48-9.4-4.43-2.21-3.77,4.05-14.03,6.13-17.14Z"/>
        <path class="cls-8" d="M438.2,623.92c.36-1.42,.59-3.04-.21-4.27-.49-.75-1.28-1.23-2.06-1.66-5.33-2.95-11.27-4.77-17.33-5.33-1.07-.1-2.22-.14-3.14,.42-.75,.46-1.23,1.25-1.67,2.02-2.85,5.04-5.13,10.39-6.82,15.93-.48,1.57,.79,3.14,2.43,2.99,4.99-.46,9.76,.67,14.78,.68,2.77,0,7.28,.83,9.43-.51,2.41-1.49,3.94-7.7,4.58-10.26Z"/>
        <path class="cls-8" d="M398.06,646.34c-.4,.93-.77,1.93-.59,2.93,.31,1.74,2.09,2.68,3.66,3.37,6.03,2.63,12.05,5.26,18.08,7.89,.54,.24,1.12,.48,1.71,.39,.81-.12,1.41-.85,1.89-1.54,3.9-5.66,5.54-12.63,7.09-19.41,.17-.73,.31-1.58-.15-2.16-.41-.5-1.11-.58-1.74-.61-6.91-.39-13.96-.85-20.88-.56-5.41,.23-6.99,4.86-9.06,9.71Z"/>
        <path class="cls-8" d="M387.41,659.74c1.17-1.72,2.44-3.45,4.12-4.36,2.5-1.36,5.42-.67,8.05,.25,4.68,1.64,9.21,3.92,13.46,6.8,1.49,1.01,3.06,2.27,3.51,4.25,.55,2.4-.77,4.83-2.25,6.56-5.76,6.7-19.74,9.07-27.51,7.19-3.75-.91-4.77-.6-8.03-2.58-6.5-3.95,5.9-14.07,8.65-18.11Z"/>
        <path class="cls-8" d="M364.97,685.43c2.03-.85,6.78-4.16,8.98-4.21,9.07-.21,15.66,2.83,24.73,2.62,1.62-.04,3.48,.03,4.51,1.28,.39,.48,.6,1.07,.72,1.67,.33,1.72-.12,3.58-1.2,4.96-2.19,2.79-6.22,3.16-9.77,3.29-2.58,.1-5.16,.19-7.74,.29-7.87,.29-15.99,.55-23.36-2.25-3.81-1.45,.96-6.75,3.14-7.66Z"/>
      </g>
    </g>
  </g>
</svg>